<svg width="283" height="319" viewBox="0 0 283 319" fill="none" xmlns="http://www.w3.org/2000/svg">
<g clip-path="url(#clip0)">
<path d="M193.949 319C198.213 277.083 141.191 284.818 141.191 251L141.719 238.448H109.787V250.636C109.787 284.818 51.9292 276.807 57.0295 319L125.444 310.667L193.949 319Z" fill="#FFE0E0"/>
<path d="M141.191 251L141.719 238.448H121.517L120.99 251C120.99 284.145 175.758 277.381 173.922 316.564L193.949 319C198.213 277.083 141.191 284.818 141.191 251V251Z" fill="#FFCFCF"/>
<path d="M50.0854 235.423C45.1305 235.423 41.1135 231.418 41.1135 226.478V152.132C41.1135 105.667 78.8948 68 125.5 68C172.105 68 209.887 105.667 209.887 152.132V226.478C209.887 231.418 205.869 235.423 200.915 235.423H50.0854Z" fill="#F5A26A"/>
<path d="M125.5 68C122.081 68 118.711 68.2081 115.399 68.602C157.242 73.5786 189.685 109.076 189.685 152.132V226.478C189.685 231.418 185.668 235.423 180.713 235.423H200.915C205.87 235.423 209.887 231.418 209.887 226.478V152.132C209.887 105.667 172.105 68 125.5 68V68Z" fill="#E68E53"/>
<path d="M80.3215 194.309H63.6601C58.2982 194.309 53.9514 189.962 53.9514 184.6V177.033C53.9514 171.671 58.2982 167.324 63.6601 167.324H80.3215V194.309Z" fill="#FFCFCF"/>
<path d="M170.678 194.309H187.34C192.702 194.309 197.049 189.962 197.049 184.6V177.033C197.049 171.671 192.702 167.324 187.34 167.324H170.678V194.309Z" fill="#FFCFCF"/>
<path d="M180.779 152.853V210.874C180.779 222.789 174.149 233.721 163.565 239.255L141.657 250.709C132.553 255.469 121.715 255.601 112.498 251.064L88.1343 239.071C77.1651 233.672 70.2209 222.532 70.2209 210.336V152.853H136.995L143.361 137.546L151.225 152.853H180.779Z" fill="#FFE0E0"/>
<path d="M160.578 152.853V210.874C160.578 222.789 153.947 233.721 143.363 239.255L121.456 250.71C119.894 251.526 118.278 252.197 116.63 252.741C124.845 255.453 133.882 254.775 141.657 250.71L163.565 239.255C174.149 233.721 180.779 222.789 180.779 210.874V152.853H160.578Z" fill="#FFCFCF"/>
<path d="M154.924 273.747C154.9 289.941 141.732 303.062 125.489 303.062C109.232 303.062 96.0542 289.918 96.0542 273.704V273.457C79.2887 284.811 53.5559 290.26 57.03 319H193.949C196.844 290.547 171.503 284.97 154.924 273.747Z" fill="#BDEDFF"/>
<path d="M154.924 273.747C154.918 277.437 154.224 280.964 152.973 284.216C165.128 291.289 175.671 300.095 173.748 319H193.949C196.844 290.547 171.503 284.97 154.924 273.747V273.747Z" fill="#A8E7FF"/>
<path d="M112.578 188.405C110.486 188.405 108.791 186.709 108.791 184.617C108.791 180.301 105.265 176.79 100.932 176.79C96.5992 176.79 93.074 180.301 93.074 184.617C93.074 189.514 85.4986 189.514 85.4986 184.617C85.4986 176.124 92.4221 169.214 100.932 169.214C109.443 169.214 116.366 176.124 116.366 184.617C116.366 186.709 114.67 188.405 112.578 188.405Z" fill="#BD6C37"/>
<path d="M161.713 188.405C159.621 188.405 157.925 186.709 157.925 184.617C157.925 180.301 154.4 176.79 150.067 176.79C145.734 176.79 142.209 180.301 142.209 184.617C142.209 189.514 134.633 189.514 134.633 184.617C134.633 176.124 141.557 169.214 150.067 169.214C158.577 169.214 165.501 176.124 165.501 184.617C165.501 186.709 163.805 188.405 161.713 188.405Z" fill="#BD6C37"/>
<path d="M141.719 218.163C141.719 227.097 134.457 234.339 125.5 234.339C116.543 234.339 109.281 227.097 109.281 218.163V205.632H141.719V218.163H141.719Z" fill="#BD6C37"/>
<path d="M140.882 222.668C123.891 214.772 110.118 222.668 110.118 222.668L109.955 222.778C111.946 229.462 118.151 234.339 125.5 234.339C132.857 234.339 139.066 229.452 141.051 222.756L140.882 222.668Z" fill="#F54C5A"/>
</g>
<path d="M263.744 0H203.257C193.191 0 185.031 8.15998 185.031 18.2255V57.8975C185.031 67.9632 193.191 76.123 203.257 76.123H211.937C212.35 76.123 212.685 76.4577 212.685 76.8708V96.4401C212.685 98.7539 215.515 99.8757 217.1 98.19L237.633 76.3585C237.774 76.2081 237.971 76.123 238.177 76.123H263.744C273.809 76.123 281.969 67.9631 281.969 57.8975V18.2255C281.969 8.15998 273.809 0 263.744 0Z" fill="#EC5569"/>
<path d="M220.353 69.3212C220.353 68.8864 220.029 68.5339 219.629 68.5339H211.225C201.48 68.5339 193.581 59.9411 193.581 49.3416V7.56482C193.581 5.77122 193.808 4.03543 194.231 2.38858C188.735 5.52758 185.031 11.4438 185.031 18.2255V57.8975C185.031 67.9631 193.191 76.123 203.257 76.123H211.937C212.35 76.123 212.685 76.4579 212.685 76.8708V96.4401C212.685 98.7539 215.515 99.8757 217.1 98.19L220.352 94.7318V69.3212H220.353Z" fill="#E63950"/>
<path d="M253.978 23.6528C249.351 19.0255 241.849 19.0255 237.221 23.6528L234.607 26.2666C233.984 26.8898 232.974 26.8898 232.35 26.2666L229.778 23.6945C225.151 19.0672 217.649 19.0672 213.021 23.6945C208.394 28.3218 208.394 35.8242 213.021 40.4517L232.352 59.7824C232.975 60.4056 233.986 60.4056 234.609 59.7824L253.978 40.4099C258.606 35.7824 258.606 28.2802 253.978 23.6528Z" fill="#EC5569"/>
<path d="M253.978 23.6528C249.351 19.0255 241.849 19.0255 237.221 23.6528L234.607 26.2666C233.984 26.8898 232.974 26.8898 232.35 26.2666L229.778 23.6945C225.151 19.0672 217.649 19.0672 213.021 23.6945C208.394 28.3218 208.394 35.8242 213.021 40.4517L232.352 59.7824C232.975 60.4056 233.986 60.4056 234.609 59.7824L253.978 40.4099C258.606 35.7824 258.606 28.2802 253.978 23.6528Z" fill="#FFF5F5"/>
<path d="M219.22 40.4516C214.592 35.8244 214.592 28.322 219.22 23.6945C220.737 22.1766 222.565 21.1599 224.499 20.6381C220.538 19.5684 216.131 20.5851 213.021 23.6945C208.394 28.3218 208.394 35.8242 213.021 40.4516L232.352 59.7824C232.975 60.4056 233.986 60.4056 234.609 59.7824L236.58 57.8117L219.22 40.4516Z" fill="#DCE6EB"/>
<defs>
<clipPath id="clip0">
<rect width="251" height="251" fill="white" transform="translate(0 68)"/>
</clipPath>
</defs>
</svg>
