<svg width="370" height="61" viewBox="0 0 370 61" fill="none" xmlns="http://www.w3.org/2000/svg">
<path d="M36.5625 60V47.9062H13.9688V35.8125H34.2188V23.9062H13.9688V12.5625H36.0938V0.46875H0.09375V60H36.5625ZM78.2812 49.2188L89.4375 0.46875H76.4062L66.5625 46.5938C66.25 47.4062 65.8125 47.8438 65.25 47.9062H61.9688L53.0625 0.46875H39.375L51.1875 60L66.0938 60.375C70.6562 60.5 73.75 59.4375 75.375 57.1875C76.4375 55.625 77.4062 52.9688 78.2812 49.2188ZM130.875 60V47.9062H108.281V35.8125H128.531V23.9062H108.281V12.5625H130.406V0.46875H94.4062V60H130.875ZM174.938 60H184.781V0.46875H172.875V36.1875L148.594 0.46875H138.844V60H150.75V24.2812L174.938 60ZM217.781 60V12.5625H231.281V0.46875H190.406V12.5625H203.906V60H217.781ZM273 60V47.9062H250.406V35.8125H270.656V23.9062H250.406V12.5625H272.531V0.46875H236.531V60H273ZM316.594 47.5312H296.156C295.344 47.4062 294.906 46.9688 294.844 46.2188V14.25C294.969 13.4375 295.406 13 296.156 12.9375H316.594V0.46875H297.656C286.469 0.59375 280.844 5.59375 280.781 15.4688V45C280.906 54.9375 286.531 59.9375 297.656 60H316.594V47.5312ZM355.406 60H369.281V0.46875H355.406V23.7188H337.688V0.46875H323.812V60H337.688V35.8125H355.406V60Z" fill="#16A085"/>
</svg>